<svg xmlns="http://www.w3.org/2000/svg" width="13" height="13" viewBox="0 0 13 13">
    <defs>
        <linearGradient id="ak1zcvygva" x1="50%" x2="50%" y1="32.314%" y2="100%">
            <stop offset="0%" stop-color="#FFBF1C"/>
            <stop offset="100%" stop-color="#FFBF1C"/>
        </linearGradient>
        <linearGradient id="397k3prtgb" x1="50%" x2="50%" y1="0%" y2="31.521%">
            <stop offset="0%" stop-color="#FFBF1C"/>
            <stop offset="100%" stop-color="#FFBF1C"/>
        </linearGradient>
    </defs>
    <g fill="none" fill-rule="evenodd">
        <g>
            <g>
                <path d="M0 0H13V13H0z" transform="translate(-120.000000, -82.000000) translate(120.000000, 82.000000)"/>
                <g>
                    <path fill="url(#ak1zcvygva)" d="M6.792.752c-.498-1.008-1.3-1.002-1.78.015L.202 11c-.481 1.017-.072 2.008.908 2h9.799c.98-.008 1.373-.992.875-2L6.792.752z" transform="translate(-120.000000, -82.000000) translate(120.000000, 82.000000) translate(0.500000, 0.000000)"/>
                    <path fill="url(#397k3prtgb)" d="M6.457 1.586c-.31-.785-.807-.78-1.104.01l-3.741 9.977c-.296.79.016 1.433.695 1.427l7.402-.062c.678-.006.98-.653.669-1.439L6.457 1.586z" transform="translate(-120.000000, -82.000000) translate(120.000000, 82.000000) translate(0.500000, 0.000000)"/>
                </g>
            </g>
        </g>
    </g>
</svg>
